<?xml version="1.0" encoding="utf-8"?>
<!-- Generator: Adobe Illustrator 24.0.0, SVG Export Plug-In . SVG Version: 6.00 Build 0)  -->
<svg version="1.1" id="Layer_1" xmlns="http://www.w3.org/2000/svg" xmlns:xlink="http://www.w3.org/1999/xlink" x="0px" y="0px"
	 viewBox="0 0 768 768" style="enable-background:new 0 0 768 768;" xml:space="preserve">
<path d="M556.35,369.61l160.23-191.32H586.89L458.82,344.96V178.29H353.78v270.14c0.52-0.01,1.03-0.04,1.55-0.04
	c9.75,0,18.98,1.83,27.71,5.48c8.73,3.66,16.34,8.74,22.84,15.23c6.49,6.5,11.57,14.11,15.23,22.84c3.65,8.74,5.48,17.97,5.48,27.71
	c0,9.75-1.83,18.99-5.48,27.71c-3.65,8.74-8.74,16.35-15.23,22.84c-4.84,4.84-10.3,8.89-16.37,12.15h69.31V407.12l136.65,175.24
	h136.12L556.35,369.61z"/>
<path d="M304.77,570.22c-6.5-6.49-11.57-14.11-15.23-22.84c-3.65-8.73-5.48-17.97-5.48-27.71c0-9.75,1.83-18.98,5.48-27.71
	c1.56-3.72,3.39-7.22,5.46-10.53l-49.58-64.65c28.94-6.78,50.82-19.74,65.65-38.85c14.82-19.11,22.24-44.03,22.24-74.76
	c0-17.15-2.77-33.23-8.31-48.23c-5.54-15.01-13.76-28.22-24.65-39.66c-10.9-11.43-24.74-20.45-41.53-27.06
	c-16.8-6.61-36.44-9.91-58.95-9.91H36.41v404.07h105.04V426.95l100.21,155.41h79.47C315.06,579.1,309.6,575.06,304.77,570.22z
	 M208.97,346.03c-11.08,8.58-26.98,12.86-47.7,12.86h-19.83v-99.68h19.83c20.72,0,36.62,4.29,47.7,12.86
	c11.07,8.57,16.61,20.9,16.61,36.98C225.59,325.13,220.04,337.46,208.97,346.03z"/>
<g>
	<path d="M301.74,519.66c0-7.33,1.37-14.27,4.12-20.84c2.75-6.56,6.56-12.29,11.45-17.18c4.88-4.88,10.61-8.7,17.18-11.45
		c6.56-2.75,13.51-4.12,20.84-4.12c7.33,0,14.27,1.37,20.84,4.12c6.56,2.75,12.29,6.57,17.18,11.45c4.88,4.89,8.7,10.61,11.45,17.18
		c2.75,6.57,4.12,13.51,4.12,20.84c0,7.33-1.37,14.28-4.12,20.84c-2.75,6.57-6.57,12.3-11.45,17.18
		c-4.89,4.89-10.61,8.7-17.18,11.45c-6.57,2.75-13.51,4.12-20.84,4.12c-7.33,0-14.28-1.38-20.84-4.12
		c-6.57-2.75-12.3-6.56-17.18-11.45c-4.89-4.88-8.7-10.61-11.45-17.18C303.11,533.94,301.74,526.99,301.74,519.66z"/>
</g>
</svg>
