<svg width="792" height="792" xmlns="http://www.w3.org/2000/svg">

 <g>
  <title>background</title>
  <rect fill="none" id="canvas_background" height="402" width="582" y="-1" x="-1"/>
 </g>
 <g>
  <title>Layer 1</title>
  <g id="svg_1">
   <g id="svg_2">
    <path id="svg_3" d="m541.237,194.999l40.619,-51.845l178.619,0l-220.511,262.405l240.354,291.806l-186.701,0l-185.959,-240.353l-1.474,0" stroke-width="10.62" stroke="#000000" fill="none"/>
   </g>
   <g id="svg_4">
    <path id="svg_5" d="m595.629,746.102l-221.768,0l-168.14,-263.57l-1.815,0l0,263.57l-178.14,0l0,-685.287l266.298,0c33.927,0 65.438,4.09 94.525,12.269c29.08,8.181 54.217,20.904 75.432,38.172c21.206,17.27 37.862,39.239 49.99,65.895c12.112,26.669 18.177,58.168 18.177,94.522c0,23.63 -3.182,46.21 -9.542,67.71c-6.361,21.515 -15.905,40.898 -28.632,58.168c-12.721,17.267 -28.485,31.81 -47.261,43.626c-18.789,11.814 -40.302,19.852 -64.529,24.085l215.405,280.84zm-391.723,-378.088l17.265,0c14.543,0 29.088,-0.909 43.627,-2.728c14.541,-1.816 27.719,-5.751 39.535,-11.814c11.816,-6.05 21.502,-14.684 29.087,-25.903c7.568,-11.205 11.36,-26.201 11.36,-44.988c0,-18.775 -3.792,-33.771 -11.36,-44.99c-7.584,-11.205 -17.271,-19.838 -29.087,-25.903c-11.816,-6.048 -24.995,-9.996 -39.535,-11.814c-14.54,-1.818 -29.084,-2.728 -43.627,-2.728l-17.265,0l0,170.868z"/>
   </g>
   <g id="svg_6">
    <g id="svg_7">
     <g id="svg_8">
      <path id="svg_9" d="m486.087,111.257c3.414,2.05 6.713,4.321 9.972,6.662c3.223,2.386 6.371,4.898 9.435,7.532c6.124,5.271 11.851,11.074 17.135,17.296c1.318,1.558 2.359,3.312 3.415,5.048l3.229,5.165c2.115,3.463 4.119,6.992 6.018,10.572c3.781,7.154 7.198,14.523 10.078,22.146c5.76,15.206 9.492,31.066 11.672,47.04c1.094,7.99 1.795,16.018 2.174,24.045c0.369,8.048 0.467,16.016 0.19,24.112c-0.558,16.106 -2.634,32.198 -6.377,47.918c-3.72,15.697 -9.12,31.134 -16.481,45.618c-7.356,14.484 -16.552,28.05 -27.519,40.116c-12.144,10.972 -25.704,20.05 -40.207,26.653c12.223,-10.203 23.258,-21.388 32.351,-33.798c10.278,-11.304 18.966,-24.11 25.902,-37.773c6.95,-13.681 12.061,-28.253 15.622,-43.272c3.572,-15.002 5.56,-30.382 6.096,-45.831c0.882,-30.925 -2.491,-62.338 -13.354,-91.062c-2.698,-7.15 -5.936,-14.134 -9.53,-20.937c-1.799,-3.394 -3.696,-6.733 -5.696,-10.006c-1.013,-1.628 -2.006,-3.27 -3.113,-4.835c-1.113,-1.562 -2.277,-3.083 -3.241,-4.745c-3.79,-6.699 -8.018,-13.198 -12.638,-19.496c-2.303,-3.157 -4.734,-6.236 -7.276,-9.244c-2.506,-3.056 -5.155,-5.983 -7.857,-8.924z"/>
     </g>
    </g>
   </g>
  </g>
  <g id="Layer_2"/>
 </g>
</svg>